# xmcd
#
# Track frame offsets:
#	150
#	13546
#	26304
#	39864
#	53108
#	63994
#	76654
#	88922
#	102358
#	113542
#	122829
#	133880
#	144803
#	156787
#	168922
#	180113
#	192324
#	205630
#	220196
#	234831
#	248865
#	262804
#	276334
#	290190
#	303831
#	318084
#
# Disc length: 4423 seconds
#
# Revision: 0
# Processed by: cddbd v1.5.2PL0 Copyright (c) Steve Scherf et al.
# Submitted via: EasyCDDAExtractor 10.0.3.1
#
DISCID=5111451a
DTITLE=Various Artist - Sunnyland Slim and His Pals, The Classic Sides 1947-53 
DTITLE=Disc C (1951-55)
DYEAR=2006
DGENRE=Blues
TTITLE0=Sunnyland Slim - Going Back To Memphis
TTITLE1=Sunnyland Slim - Devil Is A Busy Man
TTITLE2=Sunnyland Slim - Shake It Baby
TTITLE3=Sunnyland Slim - Bassology
TTITLE4=Sunnyland Slim - Four Day Bounce
TTITLE5=Sunnyland Slim - That Woman
TTITLE6=Sunnyland Slim - Be Mine Alone
TTITLE7=Sunnyland Slim - Sad And Lonesome
TTITLE8=Johnny Shines - Living In The White House
TTITLE9=Johnny Shines - Please Don't
TTITLE10=Robert Lockwood - Dust My Broom
TTITLE11=Robert Lockwood - Pearly B
TTITLE12=Robert Lockwood - I'm Gonna Dig Myself A Hole
TTITLE13=Robert Lockwood - Dust My Broom
TTITLE14=Robert Lockwood - Glory For Man
TTITLE15=Robert Lockwood - My Daily Wish
TTITLE16=Floyd Jones - Big World
TTITLE17=Floyd Jones - Dark Road
TTITLE18=Floyd Jones - Schooldays On My Mind
TTITLE19=Floyd Jones - Ain't Times Hard
TTITLE20=Floyd Jones - Floyd's Blues
TTITLE21=Floyd Jones - Any Old Lonesome Day
TTITLE22=Leroy Foster - Pet Rabbit
TTITLE23=Leroy Foster - Louella
TTITLE24=Leroy Foster - Late Hours At Midnight
TTITLE25=Leroy Foster - Blues Is Killin' Me
EXTD=
EXTT0=
EXTT1=
EXTT2=
EXTT3=
EXTT4=
EXTT5=
EXTT6=
EXTT7=
EXTT8=
EXTT9=
EXTT10=
EXTT11=
EXTT12=
EXTT13=
EXTT14=
EXTT15=
EXTT16=
EXTT17=
EXTT18=
EXTT19=
EXTT20=
EXTT21=
EXTT22=
EXTT23=
EXTT24=
EXTT25=
PLAYORDER=
